<svg viewBox="10 10 117 80" xmlns="http://www.w3.org/2000/svg">
    <g clip-path="url(#clip0)">
        <path
            d="M117.904 28.5979C118.197 29.5874 118.19 30.6417 117.884 31.6274C117.578 32.613 116.986 33.4855 116.183 34.1344C115.38 34.7833 114.403 35.1793 113.374 35.2722C112.346 35.3652 111.313 35.1509 110.407 34.6565C109.501 34.1622 108.762 33.41 108.284 32.4953C107.805 31.5806 107.61 30.5446 107.721 29.5185C107.832 28.4924 108.246 27.5224 108.909 26.7314C109.572 25.9405 110.455 25.3641 111.446 25.0755C112.77 24.6911 114.192 24.8458 115.401 25.5057C116.611 26.1657 117.511 27.2773 117.904 28.5979Z"
            fill="#222222" />
        <path
            d="M103.947 23.8217C100.366 21.9822 95.3551 19.4025 93.9405 18.6464C90.841 16.98 86.1675 18.6908 87.1724 21.9993C87.9796 24.7027 90.4576 25.2272 93.2746 25.433C95.1291 25.564 99.8471 25.6613 103.399 25.719C106.951 25.7767 107.641 25.719 103.947 23.8217Z"
            fill="#222222" />
        <path
            d="M110.616 39.8558C108.63 43.3344 105.94 48.0607 105.202 49.4362C103.511 52.5229 98.6637 53.6405 97.6991 50.3198C96.892 47.6044 98.6839 45.8251 100.928 44.1143C102.358 43.0342 106.033 40.5248 108.932 38.5646C111.266 36.9861 111.93 37.5545 110.616 39.8558Z"
            fill="#222222" />
        <path
            d="M102.91 28.4633C102.04 30.2832 101.472 33.4402 105.682 36.2312C106.911 37.0494 106.733 37.7358 105.141 37.7358C102.601 37.8542 98.9613 37.3925 97.7182 34.0615C96.246 30.1167 99.2016 28.3194 101.681 27.4984C102.801 27.1274 103.376 27.4532 102.91 28.4633Z"
            fill="#222222" />
        <path
            d="M93.7393 29.3131C92.253 31.878 90.9632 36.6119 98.4433 40.1205C99.9373 40.8213 99.8404 41.595 98.27 41.6789C95.0553 42.0133 90.0538 41.8509 88.224 38.0595C86.0181 33.4891 89.4519 30.1566 92.6859 28.4633C93.4077 28.0854 94.7255 27.6112 93.7393 29.3131Z"
            fill="#222222" />
        <path fill-rule="evenodd" clip-rule="evenodd"
            d="M84.5529 39.2626C83.081 39.9602 83.7406 41.3528 85.1936 40.5848C86.771 39.8376 86.0248 38.5649 84.5529 39.2626ZM80.648 41.2354C79.3035 41.9969 79.9581 43.3165 81.3325 42.5363C82.5415 41.85 81.8927 40.5304 80.648 41.2354ZM76.8342 43.6435C75.5862 44.5213 76.524 45.6538 77.7585 44.7898C78.9407 43.9623 78.0228 42.8075 76.8342 43.6435ZM16.4154 46.4969C16.1151 46.3165 15.9654 46.0505 16.0068 45.7652C16.0896 45.1936 16.4123 45.1207 16.8706 45.1835C17.6031 45.2839 17.0975 46.9067 16.4154 46.4969ZM73.4509 46.2908C72.2752 47.3152 73.2025 48.4573 74.3972 47.4151C75.441 46.5045 74.5239 45.356 73.4509 46.2908ZM20.4326 46.0939C19.017 45.6336 18.5898 47.0396 19.9783 47.4911C21.32 47.9274 21.8083 46.5412 20.4326 46.0939ZM24.5194 47.8052C23.1559 47.0913 22.5457 48.4292 23.8504 49.1133C25.139 49.789 25.8149 48.4835 24.5194 47.8052ZM70.293 49.3802C69.2638 50.5141 70.2953 51.5677 71.3425 50.41C72.282 49.3714 71.27 48.3036 70.293 49.3802ZM28.2484 50.2176C27.044 49.2672 26.1879 50.4629 27.3416 51.3736C28.4851 52.2763 29.4004 51.1266 28.2484 50.2176ZM52.4262 51.3927C50.7839 51.0833 50.6062 52.5478 52.136 52.8332C53.5095 53.0894 53.8966 51.6698 52.4262 51.3927ZM47.5635 51.4844C46.0457 51.8201 46.3856 53.2572 47.8267 52.931C49.2722 52.6039 49.1355 51.1367 47.5635 51.4844ZM67.5325 52.8332C66.6348 54.1165 67.842 54.9573 68.713 53.7088C69.5253 52.5444 68.3556 51.6565 67.5325 52.8332ZM31.5108 53.3483C30.4888 52.1595 29.335 53.0755 30.3711 54.2764C31.2628 55.31 32.4349 54.4232 31.5108 53.3483ZM56.8237 53.201C55.4845 52.3049 54.7134 53.5629 55.9761 54.4017C57.1772 55.1996 58.1134 54.0639 56.8237 53.201ZM43.1864 53.3189C41.8566 54.1694 42.6764 55.3956 43.939 54.5816C45.1741 53.7854 44.5171 52.4677 43.1864 53.3189ZM60.3279 56.6245C59.3768 55.3147 58.0519 56.0334 59.0124 57.316C59.8536 58.4392 61.2046 57.8317 60.3279 56.6245ZM39.6694 56.4532C38.6624 57.6757 39.7905 58.6307 40.7528 57.4491C41.6721 56.3202 40.6671 55.2418 39.6694 56.4532ZM65.2243 56.6581C64.5227 58.0252 65.8348 58.6848 66.5381 57.316C67.1861 56.055 65.8894 55.3622 65.2243 56.6581ZM34.0745 56.9322C33.2761 55.5851 32.0105 56.3311 32.8121 57.6838C33.5133 58.8672 34.7955 58.1486 34.0745 56.9322ZM37.2143 60.5183C36.589 61.9877 37.9646 62.5127 38.5577 61.1137C39.1476 59.7221 37.8146 59.1074 37.2143 60.5183ZM62.5086 60.6164C61.924 59.1727 60.5295 59.6556 61.1248 61.1137C61.6852 62.4863 63.0992 62.0747 62.5086 60.6164ZM63.4832 60.7449C62.9675 62.2539 64.3985 62.5911 64.9101 61.1137C65.3624 59.8072 63.9332 59.4279 63.4832 60.7449ZM36.0089 60.8628C35.4308 59.4314 34.0806 60.0078 34.657 61.4388C35.1817 62.7412 36.5466 62.194 36.0089 60.8628ZM63.9057 64.4792C63.7187 65.0838 63.4492 65.4409 63.0541 65.4409C62.6414 65.4409 62.4463 65.05 62.2802 64.4792C61.9129 63.217 64.2374 63.1029 63.9057 64.4792ZM37.4913 64.482C37.4167 65.1235 37.3477 65.6491 36.6788 65.6863C36.0959 65.6863 35.9615 65.1664 35.8172 64.5442C35.5476 63.3815 37.6159 63.4103 37.4913 64.482Z"
            fill="#222222" />
        <path
            d="M16.0961 66.3282L16.0156 62.8664C16.0156 62.5802 16.114 62.3565 16.3108 62.1955C16.5075 62.0345 16.7491 61.954 17.0353 61.954C17.3216 61.954 17.581 62.0345 17.8135 62.1955C18.0461 62.3386 18.1356 62.5444 18.0819 62.8127L18.2697 74.4056C19.3968 72.9028 20.9175 71.6416 22.8317 70.6218C24.424 69.7631 25.8194 69.3337 27.0181 69.3337C28.0736 69.3337 28.8876 69.6736 29.4601 70.3535C29.8894 70.8902 30.1041 71.6058 30.1041 72.5003C30.1041 73.3769 29.9342 74.1462 29.5943 74.8081C29.2722 75.4522 28.8429 76.0783 28.3062 76.6866C27.7695 77.277 27.1522 77.8316 26.4545 78.3504C25.7568 78.8692 25.0501 79.3344 24.3345 79.7458C22.9749 80.533 21.6331 81.186 20.3092 81.7048C20.2019 81.669 20.023 81.6601 19.7725 81.678C19.5221 81.6959 19.2179 81.7048 18.8601 81.7048C17.894 81.7048 17.0443 81.5885 16.3108 81.356C16.1319 79.6564 16.0424 77.0712 16.0424 73.6005L16.0961 66.3282ZM18.3502 79.5043C18.3502 79.7011 18.5291 79.7995 18.887 79.7995C19.2626 79.7995 19.7188 79.7279 20.2556 79.5848C20.7923 79.4417 21.4363 79.2002 22.1877 78.8603C22.957 78.5025 23.7263 78.0463 24.4955 77.4917C26.2846 76.2215 27.6353 74.7276 28.5477 73.0102C28.3151 71.9904 27.6174 71.4805 26.4545 71.4805C25.399 71.4805 24.2093 71.8741 22.8854 72.6613C21.0069 73.7884 19.6652 75.1838 18.8601 76.8476C18.5202 77.5095 18.3502 78.1804 18.3502 78.8603C18.3502 79.0392 18.3502 79.1823 18.3502 79.2896C18.3502 79.397 18.3502 79.4685 18.3502 79.5043Z"
            fill="#222222" />
        <path
            d="M37.9025 69.28C38.1351 72.6255 38.3318 76.4987 38.4929 80.8997C38.3855 81.4543 37.9562 81.7316 37.2048 81.7316C37.008 81.7316 36.8022 81.6959 36.5875 81.6243C36.3908 81.5349 36.2655 81.4186 36.2119 81.2754V69.28H37.9025Z"
            fill="#222222" />
        <path
            d="M46.7474 82C44.9584 82 44.0639 81.6064 44.0639 80.8192C44.0639 80.3183 44.4575 79.6653 45.2446 78.8603C46.0318 78.0552 46.7206 77.4022 47.311 76.9013C47.9013 76.3825 48.4649 75.8815 49.0016 75.3985C50.2718 74.2356 51.3094 73.1622 52.1145 72.1783C51.9535 72.1783 51.7119 72.1783 51.3899 72.1783C51.0679 72.1783 50.5938 72.2051 49.9677 72.2588C49.3594 72.2945 48.7153 72.3482 48.0355 72.4198C46.1928 72.6166 44.9852 72.715 44.4127 72.715C43.8402 72.715 43.554 72.5897 43.554 72.3393C43.554 72.0351 43.724 71.7578 44.0639 71.5074C44.4217 71.2569 44.6721 71.1317 44.8153 71.1317C44.9763 71.1317 45.0926 71.1227 45.1641 71.1048C45.2536 71.087 45.3967 71.0691 45.5935 71.0512C45.7903 71.0154 46.0676 70.9796 46.4254 70.9438C46.8011 70.8902 47.302 70.8365 47.9282 70.7828C49.1626 70.6576 51.0947 70.4876 53.7246 70.2729C54.5833 70.3803 55.0127 70.6934 55.0127 71.2122C55.0127 71.8741 54.3865 72.8402 53.1342 74.1104C52.025 75.2196 50.8353 76.3377 49.5651 77.4648C48.3128 78.5919 47.4362 79.4238 46.9353 79.9605C47.633 80.0142 48.2412 80.041 48.7601 80.041L53.1611 79.8532C53.8409 79.8532 54.4581 79.889 55.0127 79.9605C55.5673 80.0142 55.9072 80.0679 56.0324 80.1215C56.3187 80.2825 56.4618 80.5867 56.4618 81.0339C56.4618 81.2128 56.426 81.4096 56.3545 81.6243C55.9072 81.5706 55.4421 81.5438 54.959 81.5438C54.476 81.5438 53.8409 81.5706 53.0537 81.6243C52.2665 81.678 51.3184 81.7495 50.2092 81.839C48.6885 81.9463 47.5346 82 46.7474 82Z"
            fill="#222222" />
        <path
            d="M63.9113 69.28C64.1439 72.6255 64.3407 76.4987 64.5017 80.8997C64.3943 81.4543 63.965 81.7316 63.2136 81.7316C63.0168 81.7316 62.811 81.6959 62.5964 81.6243C62.3996 81.5349 62.2743 81.4186 62.2207 81.2754V69.28H63.9113Z"
            fill="#222222" />
        <path
            d="M69.9385 66.3282L69.858 62.8664C69.858 62.5802 69.9564 62.3565 70.1532 62.1955C70.35 62.0345 70.5915 61.954 70.8778 61.954C71.164 61.954 71.4234 62.0345 71.656 62.1955C71.8885 62.3386 71.978 62.5444 71.9243 62.8127L72.1122 74.4056C73.2393 72.9028 74.7599 71.6416 76.6742 70.6218C78.2664 69.7631 79.6619 69.3337 80.8605 69.3337C81.916 69.3337 82.73 69.6736 83.3025 70.3535C83.7319 70.8902 83.9466 71.6058 83.9466 72.5003C83.9466 73.3769 83.7766 74.1462 83.4367 74.8081C83.1147 75.4522 82.6853 76.0783 82.1486 76.6866C81.6119 77.277 80.9947 77.8316 80.297 78.3504C79.5992 78.8692 78.8926 79.3344 78.177 79.7458C76.8173 80.533 75.4755 81.186 74.1517 81.7048C74.0443 81.669 73.8654 81.6601 73.615 81.678C73.3645 81.6959 73.0604 81.7048 72.7026 81.7048C71.7365 81.7048 70.8867 81.5885 70.1532 81.356C69.9743 79.6564 69.8848 77.0712 69.8848 73.6005L69.9385 66.3282ZM72.1927 79.5043C72.1927 79.7011 72.3716 79.7995 72.7294 79.7995C73.1051 79.7995 73.5613 79.7279 74.098 79.5848C74.6347 79.4417 75.2788 79.2002 76.0301 78.8603C76.7994 78.5025 77.5687 78.0463 78.338 77.4917C80.127 76.2215 81.4777 74.7276 82.3901 73.0102C82.1575 71.9904 81.4598 71.4805 80.297 71.4805C79.2414 71.4805 78.0517 71.8741 76.7279 72.6613C74.8494 73.7884 73.5076 75.1838 72.7026 76.8476C72.3626 77.5095 72.1927 78.1804 72.1927 78.8603C72.1927 79.0392 72.1927 79.1823 72.1927 79.2896C72.1927 79.397 72.1927 79.4685 72.1927 79.5043Z"
            fill="#222222" />
        <path
            d="M89.1956 78.3236C89.1956 78.0373 89.1687 77.6437 89.1151 77.1428C89.0793 76.624 89.0435 76.0604 89.0077 75.4522C88.9719 74.8439 88.954 74.2267 88.954 73.6005C88.954 72.9744 89.0077 72.4019 89.1151 71.8831C89.3476 70.7202 89.8307 70.1388 90.5642 70.1388C91.0651 70.2819 91.3961 70.4608 91.5571 70.6755C91.736 70.8902 91.8254 71.1585 91.8254 71.4805C91.8254 71.7847 91.7449 72.1693 91.5839 72.6345C90.9935 74.1909 90.6983 75.5953 90.6983 76.8476C90.6983 77.2591 90.7252 77.6974 90.7789 78.1625C91.0651 79.3612 92.0491 79.9605 93.7307 79.9605C94.6074 79.9605 95.4393 79.8084 96.2264 79.5043C97.7292 78.9497 98.7489 78.2967 99.2857 77.5453C99.4467 76.7224 99.5272 76.0068 99.5272 75.3985C99.5272 74.7723 99.5003 74.2177 99.4467 73.7347C99.4109 73.2517 99.3572 72.7239 99.2857 72.1514C99.232 71.561 99.1962 70.917 99.1783 70.2193C99.4109 70.1119 99.6345 70.0583 99.8492 70.0583C100.082 70.0583 100.314 70.1746 100.547 70.4071C100.797 70.6397 101.003 71.078 101.164 71.7221C101.343 72.3661 101.459 73.1264 101.513 74.0031C101.567 74.8618 101.593 75.7563 101.593 76.6866C101.611 77.6169 101.62 78.5203 101.62 79.397C101.62 80.2557 101.656 80.9981 101.728 81.6243C101.513 81.8211 101.307 81.9195 101.11 81.9195C100.395 81.9195 99.8671 81.2039 99.5272 79.7727C99.2946 79.9695 98.901 80.211 98.3464 80.4972C97.1657 81.1413 95.7702 81.5706 94.1601 81.7853C93.856 81.8211 93.5161 81.839 93.1404 81.839C92.7647 81.839 92.2906 81.7674 91.7181 81.6243C91.1635 81.4812 90.6357 81.1502 90.1348 80.6314C89.6339 80.1126 89.3208 79.3433 89.1956 78.3236Z"
            fill="#222222" />
        <path
            d="M110.385 82C108.596 82 107.701 81.6064 107.701 80.8192C107.701 80.3183 108.095 79.6653 108.882 78.8603C109.669 78.0552 110.358 77.4022 110.948 76.9013C111.539 76.3825 112.102 75.8815 112.639 75.3985C113.909 74.2356 114.947 73.1622 115.752 72.1783C115.591 72.1783 115.349 72.1783 115.027 72.1783C114.705 72.1783 114.231 72.2051 113.605 72.2588C112.997 72.2945 112.353 72.3482 111.673 72.4198C109.83 72.6166 108.623 72.715 108.05 72.715C107.478 72.715 107.191 72.5897 107.191 72.3393C107.191 72.0351 107.361 71.7578 107.701 71.5074C108.059 71.2569 108.309 71.1317 108.453 71.1317C108.614 71.1317 108.73 71.1227 108.801 71.1048C108.891 71.087 109.034 71.0691 109.231 71.0512C109.428 71.0154 109.705 70.9796 110.063 70.9438C110.438 70.8902 110.939 70.8365 111.566 70.7828C112.8 70.6576 114.732 70.4876 117.362 70.2729C118.221 70.3803 118.65 70.6934 118.65 71.2122C118.65 71.8741 118.024 72.8402 116.772 74.1104C115.662 75.2196 114.473 76.3377 113.202 77.4648C111.95 78.5919 111.074 79.4238 110.573 79.9605C111.27 80.0142 111.879 80.041 112.397 80.041L116.798 79.8532C117.478 79.8532 118.095 79.889 118.65 79.9605C119.205 80.0142 119.545 80.0679 119.67 80.1215C119.956 80.2825 120.099 80.5867 120.099 81.0339C120.099 81.2128 120.063 81.4096 119.992 81.6243C119.545 81.5706 119.079 81.5438 118.596 81.5438C118.113 81.5438 117.478 81.5706 116.691 81.6243C115.904 81.678 114.956 81.7495 113.847 81.839C112.326 81.9463 111.172 82 110.385 82Z"
            fill="#222222" />
    </g>
    <defs>
        <clipPath id="clip0">
            <rect width="104.099" height="76" fill="white" transform="translate(16 12)" />
        </clipPath>
    </defs>
</svg>